<svg aria-hidden="true" style="position: absolute; width: 0; height: 0; overflow: hidden;" version="1.1" xmlns="http://www.w3.org/2000/svg" xmlns:xlink="http://www.w3.org/1999/xlink">
<defs>
<symbol id="scroll-up" viewBox="0 0 32 32">
<path d="M16 1.5c-8.003 0-14.5 6.497-14.5 14.5s6.497 14.5 14.5 14.5c8.003 0 14.5-6.497 14.5-14.5s-6.497-14.5-14.5-14.5zM16 2.5c7.451 0 13.5 6.049 13.5 13.5s-6.049 13.5-13.5 13.5c-7.451 0-13.5-6.049-13.5-13.5s6.049-13.5 13.5-13.5z"></path>
<path d="M16 13.707l-5.646 5.647c-0.196 0.195-0.512 0.195-0.708 0-0.195-0.196-0.195-0.512 0-0.708l6-6c0.196-0.195 0.512-0.195 0.708 0l6 6c0.195 0.196 0.195 0.512 0 0.708-0.196 0.195-0.512 0.195-0.708 0l-5.646-5.647z"></path>
</symbol>
</defs>
</svg>
